<svg version="1.2" xmlns="http://www.w3.org/2000/svg" viewBox="0 0 567 78" width="567" height="78"><defs><linearGradient id="P" gradientUnits="userSpaceOnUse"/><linearGradient id="g1" x2="1" href="#P" gradientTransform="matrix(224.176,338.227,-469.242,311.012,-72.308,27.571)"><stop stop-color="#0fffe2"/><stop offset=".26" stop-color="#10e1c9"/><stop offset=".63" stop-color="#00ded1"/><stop offset="1" stop-color="#042940"/></linearGradient><linearGradient id="g2" x2="1" href="#P" gradientTransform="matrix(214.084,344.703,-503.207,312.526,-71.262,18.1)"><stop offset=".14" stop-color="#002549" stop-opacity="1"/><stop offset=".41" stop-color="#fff" stop-opacity="0"/><stop offset=".57" stop-color="#fff" stop-opacity="0"/><stop offset=".93" stop-color="#002549" stop-opacity="1"/></linearGradient></defs><style>.a{fill:url(#g1)}.b{opacity:.7;fill:url(#g2)}</style><path fill-rule="evenodd" class="a" d="m19 4h527c8.8 0 16 7.2 16 16v38c0 8.8-7.2 16-16 16h-527c-8.8 0-16-7.2-16-16v-38c0-8.8 7.2-16 16-16z"/><path fill-rule="evenodd" class="b" d="m19 4h527c8.8 0 16 7.2 16 16v38c0 8.8-7.2 16-16 16h-527c-8.8 0-16-7.2-16-16v-38c0-8.8 7.2-16 16-16z"/></svg>